<svg width="520" height="340" viewBox="0 0 520 340" xmlns="http://www.w3.org/2000/svg">
  <defs>
    <linearGradient id="invBg" x1="0%" y1="0%" x2="100%" y2="100%">
      <stop offset="0%" stop-color="#ECFEFF"/>
      <stop offset="100%" stop-color="#EFF6FF"/>
    </linearGradient>
  </defs>

  <rect x="20" y="30" width="480" height="280" rx="24" fill="url(#invBg)"/>

  <!-- Header -->
  <rect x="40" y="50" width="440" height="40" rx="12" fill="#0F172A"/>
  <circle cx="60" cy="70" r="5" fill="#F87171"/>
  <circle cx="76" cy="70" r="5" fill="#FBBF24"/>
  <circle cx="92" cy="70" r="5" fill="#34D399"/>
  <rect x="120" y="60" width="120" height="20" rx="10" fill="#111827"/>

  <!-- Line chart -->
  <polyline points="60,210 140,190 220,210 300,170 380,190 460,160"
            fill="none" stroke="#0EA5E9" stroke-width="3" stroke-linecap="round"/>
  <circle cx="60" cy="210" r="4" fill="#0EA5E9"/>
  <circle cx="140" cy="190" r="4" fill="#0EA5E9"/>
  <circle cx="220" cy="210" r="4" fill="#0EA5E9"/>
  <circle cx="300" cy="170" r="4" fill="#0EA5E9"/>
  <circle cx="380" cy="190" r="4" fill="#0EA5E9"/>
  <circle cx="460" cy="160" r="4" fill="#0EA5E9"/>

  <!-- KPI cards -->
  <rect x="60" y="110" width="120" height="70" rx="14" fill="#FFFFFF" stroke="#E5E7EB"/>
  <rect x="200" y="110" width="120" height="70" rx="14" fill="#FFFFFF" stroke="#E5E7EB"/>
  <rect x="340" y="110" width="120" height="70" rx="14" fill="#FFFFFF" stroke="#E5E7EB"/>

  <text x="78" y="132" font-family="Inter, system-ui" font-size="11" fill="#6B7280">Active SKUs</text>
  <text x="78" y="154" font-family="Inter, system-ui" font-size="18" font-weight="700" fill="#0F172A">25+</text>

  <text x="218" y="132" font-family="Inter, system-ui" font-size="11" fill="#6B7280">On-time Refill</text>
  <text x="218" y="154" font-family="Inter, system-ui" font-size="18" font-weight="700" fill="#0F172A">97%</text>

  <text x="358" y="132" font-family="Inter, system-ui" font-size="11" fill="#6B7280">Days to Stockout</text>
  <text x="358" y="154" font-family="Inter, system-ui" font-size="18" font-weight="700" fill="#0F172A">> 30</text>
</svg>

